HIERARCHY
ROOT root
{
	OFFSET	0	13.1	24.9
	CHANNELS 6  Xposition Yposition Zposition Xrotation Yrotation Zrotation
	JOINT spine_1
	{
		OFFSET	0	9.99999	0
		CHANNELS 3  Xrotation Yrotation Zrotation
		JOINT spine_2
		{
			OFFSET	0	112	-10
			CHANNELS 3  Xrotation Yrotation Zrotation
			JOINT spine_3
			{
				OFFSET	0	206.5	19.3
				CHANNELS 3  Xrotation Yrotation Zrotation
				JOINT spine_4
				{
					OFFSET	0	110.4	14.6
					CHANNELS 3  Xrotation Yrotation Zrotation
					JOINT neck_1
					{
						OFFSET	0	71.8	-50.3
						CHANNELS 3  Xrotation Yrotation Zrotation
						JOINT neck_2
						{
							OFFSET	0	86.2	-25.8
							CHANNELS 3  Xrotation Yrotation Zrotation
							JOINT head_ee
							{
								OFFSET	0	179.8	-8.7
								CHANNELS 3  Xrotation Yrotation Zrotation
								End Site
								{
									OFFSET	1	0	0
								}
							}
						}
					}
					JOINT left_clavicle
					{
						OFFSET	-43.2	22.4	-70.8
						CHANNELS 3  Xrotation Yrotation Zrotation
						JOINT left_shoulder
						{
							OFFSET	-93.9	-5.79999	48.7
							CHANNELS 3  Xrotation Yrotation Zrotation
							JOINT left_elbow
							{
								OFFSET	-291.4	-30.8	15.2
								CHANNELS 3  Xrotation Yrotation Zrotation
								JOINT left_lowarm_twist
								{
									OFFSET	-110.7	-3.89999	13.6
									CHANNELS 3  Xrotation Yrotation Zrotation
									JOINT left_hand
									{
										OFFSET	-110.7	-3.89999	13.6
										CHANNELS 3  Xrotation Yrotation Zrotation
										JOINT left_ee
										{
											OFFSET	-80.8	-5.10001	12.1
											CHANNELS 3  Xrotation Yrotation Zrotation
											End Site
											{
												OFFSET	1	0	0
											}
										}
									}
								}
							}
						}
					}
					JOINT right_clavicle
					{
						OFFSET	43.2	22.4	-70.8
						CHANNELS 3  Xrotation Yrotation Zrotation
						JOINT right_shoulder
						{
							OFFSET	93.9	-5.79999	48.7
							CHANNELS 3  Xrotation Yrotation Zrotation
							JOINT right_elbow
							{
								OFFSET	291.4	-30.8	15.2
								CHANNELS 3  Xrotation Yrotation Zrotation
								JOINT right_lowarm_twist
								{
									OFFSET	110.7	-3.89999	13.6
									CHANNELS 3  Xrotation Yrotation Zrotation
									JOINT right_hand
									{
										OFFSET	110.7	-3.89999	13.6
										CHANNELS 3  Xrotation Yrotation Zrotation
										JOINT right_ee
										{
											OFFSET	80.8	-5.10001	12.1
											CHANNELS 3  Xrotation Yrotation Zrotation
											End Site
											{
												OFFSET	1	0	0
											}
										}
									}
								}
							}
						}
					}
				}
			}
		}
	}
	JOINT left_hip
	{
		OFFSET	-82.8	-127.5	0.300001
		CHANNELS 3  Xrotation Yrotation Zrotation
		JOINT left_knee
		{
			OFFSET	-28.2	-396.7	2.2
			CHANNELS 3  Xrotation Yrotation Zrotation
			JOINT left_ankle
			{
				OFFSET	-11.7	-411.3	35.4
				CHANNELS 3  Xrotation Yrotation Zrotation
				JOINT left_toes
				{
					OFFSET	0	-60	-88.6
					CHANNELS 3  Xrotation Yrotation Zrotation
					JOINT left_foot_ee
					{
						OFFSET	-22.5	-16.5	-42.2
						CHANNELS 3  Xrotation Yrotation Zrotation
						End Site
						{
							OFFSET	1	0	0
						}
					}
				}
			}
		}
	}
	JOINT right_hip
	{
		OFFSET	82.8	-127.5	0.300001
		CHANNELS 3  Xrotation Yrotation Zrotation
		JOINT right_knee
		{
			OFFSET	28.2	-396.7	2.2
			CHANNELS 3  Xrotation Yrotation Zrotation
			JOINT right_ankle
			{
				OFFSET	11.7	-411.3	35.4
				CHANNELS 3  Xrotation Yrotation Zrotation
				JOINT right_toes
				{
					OFFSET	0	-60	-88.6
					CHANNELS 3  Xrotation Yrotation Zrotation
					JOINT right_foot_ee
					{
						OFFSET	22.5	-16.5	-42.2
						CHANNELS 3  Xrotation Yrotation Zrotation
						End Site
						{
							OFFSET	1	0	0
						}
					}
				}
			}
		}
	}
}
MOTION
Frames: 12
Frame Time: 0.02
2806.67345883 690.3 -1658.06104445 15.2919002688 50.2678028845 -10.9613074471 -3.41555 0.0801776 -0.348035 -3.41549 0.102161 -0.342227 -3.41606 0.190162 -0.302317 -3.41616 0.14003 -0.328555 -23.2323 17.6582 11.1218 -24.5119 29.1162 19.061 -0.0 0.0 -0.0 5.28511 9.0561 10.3441 6.23473 -6.11986 58.5474 1.12927 -29.222 0.294392 10.3878 0.24857 -1.30185 1.27712 1.83186 9.29743 -0.0 0.0 -0.0 12.0004 16.939 -24.1182 -15.4746 13.9546 -52.8015 0.438708 12.2612 -0.0471217 70.2817 2.76965 7.96995 -1.00932 -28.9651 -5.84531 0.0 0.0 0.0 -5.24827 14.4663 -2.24208 -20.1005 0.29443 3.05474 37.289 4.35974 -4.6159 2.83856 -0.0 -0.0 -0.0 0.0 -0.0 9.50911 34.2646 -3.87186 -59.3657 2.13188 -8.45519 26.7617 -7.97731 3.53338 -18.3024 0.0 0.0 0.0 0.0 0.0 
2789.92289099 694.626 -1647.31258897 14.9133540134 50.5281857356 -11.2707549983 -3.29629 0.0756762 -0.276583 -3.29625 0.0931225 -0.271207 -3.29667 0.161922 -0.236657 -3.29673 0.122515 -0.259259 -23.0733 18.0898 11.873 -24.3368 29.5922 19.9033 -0.0 0.0 -0.0 5.00165 8.33982 9.83562 6.98646 -6.23594 57.8724 1.22557 -31.2611 0.342901 11.8467 0.264441 -1.48753 1.18662 -1.00238 7.54353 -0.0 0.0 -0.0 11.7808 16.0562 -23.6564 -15.805 13.4145 -51.7152 0.375789 10.5454 -0.0346803 69.9696 2.73722 7.94647 -1.12454 -28.8851 -5.19096 0.0 0.0 0.0 -7.01837 14.3508 0.0352713 -20.2331 0.292795 3.07502 37.5035 3.1081 -4.63833 1.9728 -0.0 -0.0 -0.0 0.0 -0.0 13.0345 34.1444 -5.57255 -54.9757 1.68256 -7.94913 24.6718 -6.68152 3.29258 -19.5058 0.0 0.0 0.0 0.0 0.0 
2790.09559932 694.626 -1644.4568255 15.0470273469 50.936603169 -11.4434142026 -3.29629 0.0756762 -0.276583 -3.29625 0.0931225 -0.271207 -3.29667 0.161922 -0.236657 -3.29673 0.122515 -0.259259 -23.0733 18.0898 11.873 -24.3368 29.5922 19.9033 -0.0 0.0 -0.0 5.00165 8.33982 9.83562 6.98646 -6.23594 57.8724 1.22557 -31.2611 0.342901 11.8467 0.264441 -1.48753 1.18662 -1.00238 7.54353 -0.0 0.0 -0.0 11.7808 16.0562 -23.6564 -15.805 13.4145 -51.7152 0.375789 10.5454 -0.0346803 69.9696 2.73722 7.94647 -1.12454 -28.8851 -5.19096 0.0 0.0 0.0 -7.01837 14.3508 0.0352713 -20.2331 0.292795 3.07502 37.5035 3.1081 -4.63833 1.9728 -0.0 -0.0 -0.0 0.0 -0.0 13.0345 34.1444 -5.57255 -54.9757 1.68256 -7.94913 24.6718 -6.68152 3.29258 -19.5058 0.0 0.0 0.0 0.0 0.0 
2772.61599315 704.355 -1618.60473441 12.406931561 50.6782697196 -9.35393393799 -3.13218 0.191007 -0.148111 -3.13219 0.200044 -0.135657 -3.13271 0.228703 -0.0781999 -3.13265 0.213483 -0.113338 -24.4501 18.4075 10.8838 -26.1398 30.8617 19.7699 -0.0 0.0 -0.0 4.96814 7.07913 9.76208 9.6215 -6.26817 55.4757 1.66232 -39.4671 0.596331 13.1047 0.274327 -1.6479 0.970647 -6.50568 3.79319 -0.0 0.0 -0.0 11.4497 16.0103 -22.9049 -15.7789 13.0196 -51.1413 0.314385 8.85216 -0.0243346 70.3683 2.77868 7.97644 -1.22674 -29.2417 -4.79306 0.0 0.0 0.0 -9.04893 17.3834 2.44486 -15.086 0.321794 2.28608 34.3404 0.55275 -4.35101 -1.3653 0.0 0.0 -0.0 0.0 -0.0 18.1768 32.6561 -8.29994 -40.2652 0.483726 -6.03537 22.637 -12.0941 3.0648 -20.6133 0.0 0.0 0.0 0.0 0.0 
2762.55359654 703.932 -1613.29911681 11.0083040513 51.5253796377 -8.71680090149 -3.15022 0.17516 0.0582242 -3.15023 0.1711 0.0692521 -3.15003 0.146796 0.111902 -3.15001 0.162626 0.0873136 -25.1228 18.6601 10.6577 -27.0274 31.5374 20.0062 -0.0 0.0 -0.0 4.91179 6.94227 9.65784 11.6427 -5.85726 53.9501 1.92721 -43.6673 0.772202 13.2461 0.275218 -1.66594 0.825915 -8.32451 2.04265 -0.0 0.0 -0.0 11.2739 16.0002 -22.5067 -15.7349 12.6154 -51.7822 0.29003 8.17604 -0.0207287 70.5121 2.79368 7.98719 -1.20175 -29.2345 -4.92389 0.0 0.0 0.0 -9.28195 18.6403 3.0011 -13.826 0.318088 2.0928 32.8685 0.185058 -4.20706 -2.63767 0.0 0.0 -0.0 0.0 -0.0 19.9796 31.8912 -9.13433 -35.2796 0.194081 -5.32625 22.7787 -14.2578 3.09474 -20.3475 0.0 0.0 0.0 0.0 0.0 
2747.71988681 702.079 -1604.99429395 12.7225628964 52.1210156795 -10.8757742783 -3.14885 0.141329 -0.0482976 -3.14886 0.144116 -0.0392066 -3.14898 0.149353 0.000163537 -3.14895 0.147505 -0.0234262 -25.1228 18.7754 10.0803 -27.1442 31.9886 19.5889 -0.0 0.0 -0.0 4.91312 7.14336 9.66306 12.3836 -6.33499 53.6333 2.06241 -45.6084 0.867212 13.4588 0.276474 -1.69308 0.737918 -9.61201 0.898594 -0.0 0.0 -0.0 11.1165 15.716 -22.1631 -16.3768 12.0725 -51.1629 0.264759 7.47209 -0.0172885 70.3151 2.77313 7.97246 -1.29899 -29.1971 -4.38679 0.0 0.0 0.0 -11.9859 18.8697 4.94644 -13.4052 0.315904 2.02827 31.4894 -0.786913 -4.07333 -3.60843 0.0 0.0 -0.0 0.0 -0.0 21.6611 31.1076 -9.73974 -31.1933 0.00348713 -4.72839 22.665 -15.9184 3.0938 -20.3165 0.0 0.0 0.0 0.0 0.0 
2733.810525 699.136 -1600.91894348 13.9046328132 53.6501970952 -12.2300758901 -3.25616 0.14504 0.0799112 -3.25617 0.139661 0.0889785 -3.25595 0.111042 0.122849 -3.25595 0.12905 0.10377 -25.2619 19.4058 11.0748 -27.3731 32.8216 20.9224 -0.0 0.0 -0.0 4.93968 6.92232 9.70829 14.1867 -6.09039 52.4953 2.35984 -49.4479 1.08672 12.5553 0.270442 -1.57783 0.61964 -10.1798 -0.142755 -0.0 0.0 -0.0 10.8361 15.1665 -21.5542 -16.7521 10.0821 -51.5782 0.268062 7.56422 -0.0177207 70.8468 2.82871 8.01204 -1.28286 -29.0569 -4.41277 0.0 0.0 0.0 -14.4472 19.4919 6.21664 -11.8633 0.303853 1.79201 33.5514 2.42844 -4.26271 -3.84742 0.0 0.0 -0.0 0.0 -0.0 23.4434 30.6687 -10.7144 -26.8806 -0.15085 -4.08467 21.3632 -17.1066 2.94377 -20.8914 0.0 0.0 0.0 0.0 0.0 
2720.56607918 693.832 -1601.37425977 12.7727983348 53.5987894613 -10.9980645848 -3.2083 0.198097 0.0165666 -3.20832 0.196642 0.0291385 -3.20824 0.181926 0.0801239 -3.2082 0.192297 0.0503864 -27.3067 18.7062 11.0219 -29.5398 31.7684 21.2416 -0.0 0.0 -0.0 4.95599 7.64707 9.74687 15.8696 -6.95914 51.7658 2.63153 -52.4986 1.29786 11.9031 0.264959 -1.49471 0.812449 -9.82184 1.31195 -0.0 0.0 -0.0 10.3464 15.2933 -20.452 -17.3496 9.45573 -52.3891 0.302197 8.5141 -0.0224945 71.2364 2.86966 8.04071 -1.2117 -28.8632 -4.71224 0.0 0.0 0.0 -15.9266 20.9342 7.47698 -8.40881 0.253807 1.26438 33.2586 4.23516 -4.22778 -5.90284 0.0 0.0 -0.0 0.0 -0.0 24.2539 30.2789 -11.1653 -18.2264 -0.312531 -2.76776 12.8802 -18.6779 1.84559 -19.703 0.0 0.0 0.0 0.0 0.0 
2702.93732845 693.195 -1602.59993299 12.5920977537 54.2096011643 -10.7982738411 -3.13304 0.217735 0.0505126 -3.13306 0.214079 0.0642653 -3.13284 0.189606 0.118363 -3.1328 0.205919 0.0869326 -26.4562 19.2062 11.0179 -28.7206 32.621 21.2408 -0.0 0.0 -0.0 4.97591 7.78694 9.78428 17.1363 -7.02159 51.7136 2.94392 -55.5499 1.55075 10.471 0.249602 -1.31243 0.868539 -8.43431 2.28383 -0.0 0.0 -0.0 10.2057 15.0826 -20.1473 -18.2795 9.08212 -53.0307 0.296861 8.36591 -0.0217113 71.0909 2.85434 8.03003 -1.38129 -29.0423 -3.87826 0.0 0.0 0.0 -17.2914 19.9808 8.07698 -7.244 0.22977 1.08726 33.8621 6.18102 -4.28676 -6.71558 0.0 0.0 -0.0 0.0 -0.0 24.9661 30.0096 -11.5374 -13.3536 -0.315603 -2.02036 7.71111 -18.7899 1.1242 -18.6985 0.0 0.0 0.0 0.0 0.0 
2671.36308661 691.395 -1608.598679 10.8409941259 54.7209228514 -9.10643799048 -3.03285 0.176331 0.0693224 -3.03286 0.171563 0.0804023 -3.03263 0.144555 0.122484 -3.03261 0.162085 0.0981167 -25.567 19.4912 9.90077 -27.9345 33.4847 20.1136 -0.0 0.0 -0.0 4.97903 8.03547 9.79237 18.5748 -7.90744 52.1245 3.41624 -59.4065 1.94924 7.58289 0.204798 -0.946274 1.10004 -6.77442 4.55496 -0.0 0.0 -0.0 9.82107 14.89 -19.3007 -19.2523 7.78559 -54.2254 0.321809 9.05778 -0.0254903 71.2279 2.86877 8.04009 -1.44079 -28.7931 -3.44892 0.0 0.0 0.0 -18.847 20.0926 9.08906 -5.75804 0.193886 0.86205 35.2362 10.6445 -4.43875 -7.9381 0.0 0.0 -0.0 0.0 -0.0 25.672 30.0036 -11.7002 -3.09648 -0.11505 -0.461226 -1.0589 -16.9758 -0.157077 -17.738 0.0 0.0 0.0 0.0 0.0 
2670.92740845 691.395 -1612.34582317 10.7296021934 54.3040169242 -8.96963444393 -3.03285 0.176331 0.0693224 -3.03286 0.171563 0.0804023 -3.03263 0.144555 0.122484 -3.03261 0.162085 0.0981167 -25.567 19.4912 9.90077 -27.9345 33.4847 20.1136 -0.0 0.0 -0.0 4.97903 8.03547 9.79237 18.5748 -7.90744 52.1245 3.41624 -59.4065 1.94924 7.58289 0.204798 -0.946274 1.10004 -6.77442 4.55496 -0.0 0.0 -0.0 9.82107 14.89 -19.3007 -19.2523 7.78559 -54.2254 0.321809 9.05778 -0.0254903 71.2279 2.86877 8.04009 -1.44079 -28.7931 -3.44892 0.0 0.0 0.0 -18.847 20.0926 9.08906 -5.75804 0.193886 0.86205 35.2362 10.6445 -4.43875 -7.9381 0.0 0.0 -0.0 0.0 -0.0 25.672 30.0036 -11.7002 -3.09648 -0.11505 -0.461226 -1.0589 -16.9758 -0.157077 -17.738 0.0 0.0 0.0 0.0 0.0 
2670.30635906 691.395 -1618.16626197 10.5622742447 53.6568184568 -8.76275771873 -3.03285 0.176331 0.0693224 -3.03286 0.171563 0.0804023 -3.03263 0.144555 0.122484 -3.03261 0.162085 0.0981167 -25.567 19.4912 9.90077 -27.9345 33.4847 20.1136 -0.0 0.0 -0.0 4.97903 8.03547 9.79237 18.5748 -7.90744 52.1245 3.41624 -59.4065 1.94924 7.58289 0.204798 -0.946274 1.10004 -6.77442 4.55496 -0.0 0.0 -0.0 9.82107 14.89 -19.3007 -19.2523 7.78559 -54.2254 0.321809 9.05778 -0.0254903 71.2279 2.86877 8.04009 -1.44079 -28.7931 -3.44892 0.0 0.0 0.0 -18.847 20.0926 9.08906 -5.75804 0.193886 0.86205 35.2362 10.6445 -4.43875 -7.9381 0.0 0.0 -0.0 0.0 -0.0 25.672 30.0036 -11.7002 -3.09648 -0.11505 -0.461226 -1.0589 -16.9758 -0.157077 -17.738 0.0 0.0 0.0 0.0 0.0 
